<mxfile host="app.diagrams.net" modified="2024-04-05T09:35:02.454Z" agent="Mozilla/5.0 (Windows NT 10.0; Win64; x64) AppleWebKit/537.36 (KHTML, like Gecko) Chrome/122.0.0.0 Safari/537.36 Edg/122.0.0.0" etag="cLRrtRVC9mwlAZVKfwIB" version="24.0.4" type="github">
  <diagram id="_y_MiWxf_ru2kXOl8PKq" name="第 1 页">
    <mxGraphModel dx="2124" dy="1397" grid="1" gridSize="10" guides="1" tooltips="1" connect="1" arrows="1" fold="1" page="1" pageScale="1" pageWidth="827" pageHeight="1169" math="0" shadow="0">
      <root>
        <mxCell id="0" />
        <mxCell id="1" parent="0" />
        <mxCell id="ek3AfG3ewywKdCFBDNp1-34" value="" style="rounded=0;whiteSpace=wrap;html=1;fontSize=24;fillColor=none;dashed=1;" parent="1" vertex="1">
          <mxGeometry x="-150" y="420" width="320" height="280" as="geometry" />
        </mxCell>
        <mxCell id="ek3AfG3ewywKdCFBDNp1-17" value="" style="edgeStyle=orthogonalEdgeStyle;rounded=0;orthogonalLoop=1;jettySize=auto;html=1;fontSize=24;entryX=0.5;entryY=0;entryDx=0;entryDy=0;" parent="1" source="ek3AfG3ewywKdCFBDNp1-6" target="ek3AfG3ewywKdCFBDNp1-7" edge="1">
          <mxGeometry relative="1" as="geometry">
            <mxPoint x="380" y="200" as="targetPoint" />
          </mxGeometry>
        </mxCell>
        <mxCell id="ek3AfG3ewywKdCFBDNp1-6" value="开始" style="strokeWidth=2;html=1;shape=mxgraph.flowchart.start_1;whiteSpace=wrap;fontSize=24;fillColor=none;" parent="1" vertex="1">
          <mxGeometry x="330" y="140" width="90" height="50" as="geometry" />
        </mxCell>
        <mxCell id="ek3AfG3ewywKdCFBDNp1-19" value="" style="edgeStyle=orthogonalEdgeStyle;rounded=0;orthogonalLoop=1;jettySize=auto;html=1;fontSize=24;entryX=0.5;entryY=0;entryDx=0;entryDy=0;" parent="1" source="ek3AfG3ewywKdCFBDNp1-7" target="ek3AfG3ewywKdCFBDNp1-8" edge="1">
          <mxGeometry relative="1" as="geometry" />
        </mxCell>
        <mxCell id="ek3AfG3ewywKdCFBDNp1-7" value="初始化蚁群系统参数" style="rounded=0;whiteSpace=wrap;html=1;fontSize=24;fillColor=none;" parent="1" vertex="1">
          <mxGeometry x="240" y="210" width="270" height="40" as="geometry" />
        </mxCell>
        <mxCell id="ek3AfG3ewywKdCFBDNp1-20" value="" style="edgeStyle=orthogonalEdgeStyle;rounded=0;orthogonalLoop=1;jettySize=auto;html=1;fontSize=24;" parent="1" source="ek3AfG3ewywKdCFBDNp1-8" target="ek3AfG3ewywKdCFBDNp1-9" edge="1">
          <mxGeometry relative="1" as="geometry" />
        </mxCell>
        <mxCell id="ek3AfG3ewywKdCFBDNp1-8" value="初始化蚂蚁位置" style="rounded=0;whiteSpace=wrap;html=1;fontSize=24;fillColor=none;" parent="1" vertex="1">
          <mxGeometry x="240" y="270" width="270" height="40" as="geometry" />
        </mxCell>
        <mxCell id="ek3AfG3ewywKdCFBDNp1-21" value="" style="edgeStyle=orthogonalEdgeStyle;rounded=0;orthogonalLoop=1;jettySize=auto;html=1;fontSize=24;" parent="1" source="ek3AfG3ewywKdCFBDNp1-9" target="ek3AfG3ewywKdCFBDNp1-12" edge="1">
          <mxGeometry relative="1" as="geometry" />
        </mxCell>
        <mxCell id="ek3AfG3ewywKdCFBDNp1-9" value="根据转移概率确定蚂蚁下一步结点选择" style="rounded=0;whiteSpace=wrap;html=1;fontSize=24;fillColor=none;" parent="1" vertex="1">
          <mxGeometry x="240" y="330" width="270" height="70" as="geometry" />
        </mxCell>
        <mxCell id="ek3AfG3ewywKdCFBDNp1-23" value="" style="edgeStyle=orthogonalEdgeStyle;rounded=0;orthogonalLoop=1;jettySize=auto;html=1;fontSize=24;entryX=1;entryY=0.5;entryDx=0;entryDy=0;" parent="1" source="ek3AfG3ewywKdCFBDNp1-12" target="ek3AfG3ewywKdCFBDNp1-9" edge="1">
          <mxGeometry relative="1" as="geometry">
            <mxPoint x="700" y="400" as="targetPoint" />
            <Array as="points">
              <mxPoint x="570" y="470" />
              <mxPoint x="570" y="365" />
            </Array>
          </mxGeometry>
        </mxCell>
        <mxCell id="ek3AfG3ewywKdCFBDNp1-24" value="否" style="edgeLabel;html=1;align=center;verticalAlign=middle;resizable=0;points=[];fontSize=24;" parent="ek3AfG3ewywKdCFBDNp1-23" vertex="1" connectable="0">
          <mxGeometry x="-0.3373" relative="1" as="geometry">
            <mxPoint as="offset" />
          </mxGeometry>
        </mxCell>
        <mxCell id="ek3AfG3ewywKdCFBDNp1-26" value="" style="edgeStyle=orthogonalEdgeStyle;rounded=0;orthogonalLoop=1;jettySize=auto;html=1;fontSize=24;" parent="1" source="ek3AfG3ewywKdCFBDNp1-12" target="ek3AfG3ewywKdCFBDNp1-25" edge="1">
          <mxGeometry relative="1" as="geometry" />
        </mxCell>
        <mxCell id="ek3AfG3ewywKdCFBDNp1-28" value="" style="edgeStyle=orthogonalEdgeStyle;rounded=0;orthogonalLoop=1;jettySize=auto;html=1;fontSize=24;" parent="1" source="ek3AfG3ewywKdCFBDNp1-12" target="ek3AfG3ewywKdCFBDNp1-25" edge="1">
          <mxGeometry relative="1" as="geometry">
            <Array as="points">
              <mxPoint x="180" y="470" />
              <mxPoint x="180" y="470" />
            </Array>
          </mxGeometry>
        </mxCell>
        <mxCell id="ek3AfG3ewywKdCFBDNp1-29" value="是" style="edgeLabel;html=1;align=center;verticalAlign=middle;resizable=0;points=[];fontSize=24;" parent="ek3AfG3ewywKdCFBDNp1-28" vertex="1" connectable="0">
          <mxGeometry x="-0.2594" y="-1" relative="1" as="geometry">
            <mxPoint x="1" y="1" as="offset" />
          </mxGeometry>
        </mxCell>
        <mxCell id="ek3AfG3ewywKdCFBDNp1-12" value="是否所有蚂蚁都&lt;br&gt;抵达终点？" style="rhombus;whiteSpace=wrap;html=1;fontSize=24;fillColor=none;" parent="1" vertex="1">
          <mxGeometry x="197.5" y="425" width="355" height="90" as="geometry" />
        </mxCell>
        <mxCell id="ek3AfG3ewywKdCFBDNp1-31" value="" style="edgeStyle=orthogonalEdgeStyle;rounded=0;orthogonalLoop=1;jettySize=auto;html=1;fontSize=24;" parent="1" source="ek3AfG3ewywKdCFBDNp1-25" target="ek3AfG3ewywKdCFBDNp1-30" edge="1">
          <mxGeometry relative="1" as="geometry" />
        </mxCell>
        <mxCell id="ek3AfG3ewywKdCFBDNp1-25" value="计算所有蚂蚁的适应度值，选出最优蚂蚁个体" style="whiteSpace=wrap;html=1;fontSize=24;fillColor=none;" parent="1" vertex="1">
          <mxGeometry x="-130" y="440" width="280" height="60" as="geometry" />
        </mxCell>
        <mxCell id="ek3AfG3ewywKdCFBDNp1-33" value="" style="edgeStyle=orthogonalEdgeStyle;rounded=0;orthogonalLoop=1;jettySize=auto;html=1;fontSize=24;" parent="1" source="ek3AfG3ewywKdCFBDNp1-30" target="ek3AfG3ewywKdCFBDNp1-32" edge="1">
          <mxGeometry relative="1" as="geometry" />
        </mxCell>
        <mxCell id="ek3AfG3ewywKdCFBDNp1-30" value="克隆多个最佳蚂蚁个体，并对克隆体进行突变" style="whiteSpace=wrap;html=1;fontSize=24;fillColor=none;" parent="1" vertex="1">
          <mxGeometry x="-130" y="525" width="280" height="60" as="geometry" />
        </mxCell>
        <mxCell id="ek3AfG3ewywKdCFBDNp1-37" value="" style="edgeStyle=orthogonalEdgeStyle;rounded=0;orthogonalLoop=1;jettySize=auto;html=1;fontSize=24;" parent="1" source="ek3AfG3ewywKdCFBDNp1-32" target="ek3AfG3ewywKdCFBDNp1-36" edge="1">
          <mxGeometry relative="1" as="geometry" />
        </mxCell>
        <mxCell id="ek3AfG3ewywKdCFBDNp1-32" value="用克隆体中最佳个体替代最佳蚂蚁个体" style="whiteSpace=wrap;html=1;fontSize=24;fillColor=none;" parent="1" vertex="1">
          <mxGeometry x="-130" y="610" width="280" height="60" as="geometry" />
        </mxCell>
        <mxCell id="ek3AfG3ewywKdCFBDNp1-35" value="克隆算子" style="rounded=0;whiteSpace=wrap;html=1;dashed=1;fontSize=24;strokeColor=none;" parent="1" vertex="1">
          <mxGeometry x="-60" y="690" width="120" height="30" as="geometry" />
        </mxCell>
        <mxCell id="ek3AfG3ewywKdCFBDNp1-40" value="" style="edgeStyle=orthogonalEdgeStyle;rounded=0;orthogonalLoop=1;jettySize=auto;html=1;fontSize=24;" parent="1" source="ek3AfG3ewywKdCFBDNp1-36" target="ek3AfG3ewywKdCFBDNp1-39" edge="1">
          <mxGeometry relative="1" as="geometry" />
        </mxCell>
        <mxCell id="ek3AfG3ewywKdCFBDNp1-36" value="全局信息素更新" style="whiteSpace=wrap;html=1;fontSize=24;fillColor=none;" parent="1" vertex="1">
          <mxGeometry x="280" y="610" width="190" height="60" as="geometry" />
        </mxCell>
        <mxCell id="ek3AfG3ewywKdCFBDNp1-38" value="" style="strokeWidth=2;html=1;shape=mxgraph.flowchart.annotation_2;align=left;labelPosition=right;pointerEvents=1;fontSize=24;fillColor=none;" parent="1" vertex="1">
          <mxGeometry x="470" y="612.5" width="30" height="55" as="geometry" />
        </mxCell>
        <mxCell id="ek3AfG3ewywKdCFBDNp1-42" value="" style="edgeStyle=orthogonalEdgeStyle;rounded=0;orthogonalLoop=1;jettySize=auto;html=1;fontSize=24;" parent="1" source="ek3AfG3ewywKdCFBDNp1-39" target="ek3AfG3ewywKdCFBDNp1-41" edge="1">
          <mxGeometry relative="1" as="geometry">
            <Array as="points">
              <mxPoint x="375" y="870" />
              <mxPoint x="375" y="870" />
            </Array>
          </mxGeometry>
        </mxCell>
        <mxCell id="ek3AfG3ewywKdCFBDNp1-49" value="是" style="edgeLabel;html=1;align=center;verticalAlign=middle;resizable=0;points=[];fontSize=24;" parent="ek3AfG3ewywKdCFBDNp1-42" vertex="1" connectable="0">
          <mxGeometry x="-0.2356" y="-4" relative="1" as="geometry">
            <mxPoint x="4" as="offset" />
          </mxGeometry>
        </mxCell>
        <mxCell id="ek3AfG3ewywKdCFBDNp1-39" value="是否满足&lt;br&gt;终止条件？" style="rhombus;whiteSpace=wrap;html=1;fontSize=24;fillColor=none;" parent="1" vertex="1">
          <mxGeometry x="265" y="700" width="220" height="100" as="geometry" />
        </mxCell>
        <mxCell id="ek3AfG3ewywKdCFBDNp1-48" value="" style="edgeStyle=orthogonalEdgeStyle;rounded=0;orthogonalLoop=1;jettySize=auto;html=1;fontSize=24;" parent="1" source="ek3AfG3ewywKdCFBDNp1-41" target="ek3AfG3ewywKdCFBDNp1-47" edge="1">
          <mxGeometry relative="1" as="geometry" />
        </mxCell>
        <mxCell id="ek3AfG3ewywKdCFBDNp1-50" style="edgeStyle=orthogonalEdgeStyle;rounded=0;orthogonalLoop=1;jettySize=auto;html=1;fontSize=24;entryX=0;entryY=0.5;entryDx=0;entryDy=0;exitX=0;exitY=0.5;exitDx=0;exitDy=0;" parent="1" source="ek3AfG3ewywKdCFBDNp1-39" target="ek3AfG3ewywKdCFBDNp1-8" edge="1">
          <mxGeometry relative="1" as="geometry">
            <mxPoint x="240" y="270" as="targetPoint" />
            <Array as="points">
              <mxPoint x="200" y="750" />
              <mxPoint x="200" y="290" />
            </Array>
          </mxGeometry>
        </mxCell>
        <mxCell id="ek3AfG3ewywKdCFBDNp1-51" value="否" style="edgeLabel;html=1;align=center;verticalAlign=middle;resizable=0;points=[];fontSize=24;" parent="ek3AfG3ewywKdCFBDNp1-50" vertex="1" connectable="0">
          <mxGeometry x="-0.8936" y="2" relative="1" as="geometry">
            <mxPoint as="offset" />
          </mxGeometry>
        </mxCell>
        <mxCell id="ek3AfG3ewywKdCFBDNp1-41" value="输出结果" style="rounded=1;whiteSpace=wrap;html=1;fontSize=24;fillColor=none;" parent="1" vertex="1">
          <mxGeometry x="302.5" y="850" width="145" height="60" as="geometry" />
        </mxCell>
        <mxCell id="ek3AfG3ewywKdCFBDNp1-47" value="结束" style="ellipse;whiteSpace=wrap;html=1;fontSize=24;fillColor=none;rounded=1;" parent="1" vertex="1">
          <mxGeometry x="315" y="930" width="120" height="60" as="geometry" />
        </mxCell>
        <mxCell id="ek3AfG3ewywKdCFBDNp1-59" value="" style="strokeWidth=2;html=1;shape=mxgraph.flowchart.annotation_2;align=left;labelPosition=right;pointerEvents=1;fontSize=24;fillColor=none;" parent="1" vertex="1">
          <mxGeometry x="500" y="595.14" width="20" height="35" as="geometry" />
        </mxCell>
        <mxCell id="ek3AfG3ewywKdCFBDNp1-60" style="edgeStyle=orthogonalEdgeStyle;rounded=0;orthogonalLoop=1;jettySize=auto;html=1;exitX=0.5;exitY=1;exitDx=0;exitDy=0;exitPerimeter=0;fontSize=24;" parent="1" source="ek3AfG3ewywKdCFBDNp1-59" target="ek3AfG3ewywKdCFBDNp1-59" edge="1">
          <mxGeometry relative="1" as="geometry" />
        </mxCell>
        <mxCell id="ek3AfG3ewywKdCFBDNp1-61" value="" style="shape=image;verticalLabelPosition=bottom;labelBackgroundColor=default;verticalAlign=top;aspect=fixed;imageAspect=0;image=data:image/png,iVBORw0KGgoAAAANSUhEUgAAAKkAAABqCAYAAADHqXE1AAAKR0lEQVR4nO2dT2gTTxvHv3n5HVt62B4ae7GRtniR1pKCUFAaKwYVPCiiYPRgiyAopBXBU296SP8dLIgVikIbsIdC0lbQ9GKwB2kjxYsNpqdmezCHkr3Pe5BdN9Mk3T8zm8Q+H1jopu3MtPvdZ+aZeeYZH2OMgSDqmP/VugEEcRQkUqLuIZESdQ+JlBBKJpNBf38/VFUVViaJlBCGpml4+vQpTp8+Db/fL6zc/4SVRBx7Xr9+jVQqhUQiIbRcH01BESJIJpO4du0aAoEA0um0UEtK3T3hmkwmg/v37wMAOjo60NzcLLR8Einhing8jqGhIRQKBQBAOBxGU1OT0DpIpIQjVldX0d/fj9u3bxsCVRQFg4ODwuuiMSlhmWw2i8ePH+Pjx49H/mwoFMLy8rIQq0qWlLBMZ2cn1tbWwBgDYwyRSKTk+7FYzPje58+fhXX7JFLCEaqqIp1OG/eyunqAREo4ZHNzE7lczrjv6elBZ2enlLpIpIQjfv78WXIvw6vXIZESttE0DWtrayWfdXd3S6uPRErYJpvN4vv378Z9IBBAX1+ftPpIpIRt1tfXjblRABgYGBC6DMpDIiVsUa6rv3nzptQ6SaSELYrFInZ3d4172V09QCIlbMJPPcnu6gESKWGTDx8+lNzL7uoBEilhA36VyYuuHiCREjaoRVcPkEgJG/CrTGfOnPGkXhIpYQl+6klmQAkPiZSwBL/KJDOghIdESliCX2UyB5RMTEzg3r170uqWItJ4PI7u7m74fD60trYiHo/LqAaapmFqagpzc3NCypubm8PU1BQ0TRNS3r/E9va28bW5q08mk5idncXLly/lVc4EUiwWWSgUYgBKLkVR2NbWlsiq2MrKClMUhUWjUVYsFoWUqbc/GAwKb28jwz/XQCDA8vk829nZYZcvX5b+vxIm0nw+z4LB4CGB6lcsFhNST7FYZNFolCmKwhYXF4WUyROLxRgANj4+LuwFaGTKGZ+uri4WDAbZzs6O9PqFiLSSBTVfkUhEWD2KorBEIiGg5ZXRhRoKhUiojLGtrS2mKIrRM05OTnr2fxEiUv2BDg8Pl7xZi4uLhkjdPmzziyBboDok1PrAtUjz+TwLBAIVu3MRD9osUBEW2Wm9JNTa4FqksVisqnD0bsKNSHWh6wN2EWxtbbFgMHhkeeZuTtS4mrCHK5Hm83l269atqg9af8hOLWAikZDifIVCIctt0l8SL4caxF+ETkGVw41I9aGEaCuqi86q4GS1g7CGZytOToIRFhYWjKgbURE3yWQSY2NjtsLM/H4/BgYGAAC5XA4LCwuu20FYR7pI9/b2UCgUbG95VVUVs7Ozxr2I4Fo3KQrN9b948QKZTMZ1ewhrSBcpH95lFbMVFRFc6zZFYV9fHwKBAACgUChgfX3dVXsIG8gcS+hjObvLouYxIFxOX62srBxaCXOyTFtpaZCQjzRLqmka7t69i1wuh5aWFrS1tVn+XT4C3K7Vy2azCIfD8Pl8uHLlCr59+1by/UKhgLNnz8Ln8+HixYuWAkqampoQDoeN+1wuh83NTcttIpwjTaSPHj1CKpVy9Lv8Zi+741lZKQr5dvDtJOQgRaQTExN49+6dcW/HSSmXUrC9vd1xW0SmKGxvb4eiKMZ9Op0Wel4RUR7hItWneMy0t7dbtlZ8V293qHBUeW4iytva2tDS0mLcO+3yVVXFqVOn4PP5pF2tra3/zAyEUJGap3ic4nQ2wGp5olMUim4vcRhhIlVVFTdu3CjZYjA2NgZFUWxN5JsjwAF3R66ITlHY3NyMjo6Oks/49lrB7/fj169fxrhYxvX792/09vY6/lvrCSEiNXvyOrFYDOfPn7c1ka9pGvb29kQ0CYA3KQr39vZou4lkhIiU9+QjkQhGR0dtd4V8Miy3iE5R2NTUdMiJ293dRbFYdFwmcTSuRcp78qFQCK9evTLu3XrndpwuM7VIUUjIwdUBuLwnHwgE8P79e0NU29vbrr1zp9QiRWGj4/P5PKuL2Tg+zLEl5T15RVGwtLTkSW4gK9Qqb1Gj4qVA7dbnSKTlPPn5+fkSb1J3gtweiOrUMalFisJGxo5l87o+2yKt5MlfvXq15OdEO0F2qFWKwkZH5pQYf9nBtkgrefKVsOP4lJuHdIKXXb2TnoJWnOxhS6RHefJm9vf3cXBwYKsxoqZ4ZKUoLDeP63T2gbCOZZEe5cnz6BH51QSiqiqGhoZKgjTcCsrrFIVO2ksrTvawJFI3nny1ZcOFhQWcOHGipBx+derg4AD7+/tWmglAborCcuNsmSfBEX84UqRWPPly6F1uJe88Ho9jbGzskNdt3qYB/AlQtrNUKjNFIT+EIYfMI6qF7ZfL8WR177t5r7o5+4eqqiwajVbNRhKJRBwnOzP/rnmbSCKRcL3lw5wDAJR+xzOqipQXi52982aRlruq7TPixWC1XtkpCvm/iTKaeENFkfIPxK7V4IXGX9USMzjdiCc7RaH5paWNeN5RVqS8wJw8EF5oZgtqJa+o+SWxs7tTVopC/u/xMnHacUfqluadnZ2S7cR8ashq8KKodQ4mXvyUCdo7pOeCcgPvfNVLW2gs6i11LVKzNa2l9aKEZbWlro/I8fv9mJmZAfBnvnR6erom7TDHAszMzFDIn9fU+i2xgt7V1sKamq1orYccx5WGECljf6d/vJ5Ap7z5tadhRFqLvPn6VBwJtHZ8+fKlcUTK2N8znOCBhy0i1z/hnufPnzeWSHX0LjgajUopf3FxUfhpe4RzGlKkjP1dKBBp6bw4bY+wj48xj3dgCUTTNCSTSWiahgcPHrgub25uDsViEcPDwxRtX0c0tEiJ40FdT+YTBEAiJRoAEilR95BIibqHREq4QtM0vH37FuFwGK2trSXJKUZGRpDNZl3XQSIlHKFpGkZHR9Hc3Ixnz57h0qVL+PHjh7Hvf2NjA6lUCufOnXOfSaWWk7REY6KvyAFg4+PjFRdTRAXnkEgJy5hjJ45alUskEoaQ3QaKu0qiSxwfNE3D9evXjWR18/PzhzIp6ugZb8xJOtxAY1LCEuZsiuVSfZrR84DpuM5q6NgGE8cG8yZEK+PLYrHIhoeHjR3CbgOAaO2eqEomkyk5gj2RSFS1ojKg7p6oyvT0tCHQUCiECxcueN4GEilRkUwmg5WVFeNe9JGXViGREhUxW9FAIIA7d+7UpB0kUqIs/OEYbk+RcQOJlCgLfzhGLc8GIJESZZF1OIYTSKREWZwckS4LEikhDTsHclSDREpYwq5ljcfjePLkiaMjN3kowIQoCz8GTafTUFXV0hr8xMQEZmdnkU6nxThbrhZViX8Wc2ZrWFy319fsRWc/pO6eKEtnZyd6enpKPkulUhgcHMTq6mpJN57JZDAyMoKTJ08ilUphY2ND6Gl8FGBCVIQPLjmKUCiE5eVl4fOpZEmJivT29uLTp09QFKXqzymKgsnJSSkCBciSEhbQNA1v3rzB0tISvn79anze1dWFhw8fSs+dRSIl6h7q7om6h0RK1D3/B9tQq9w2o7d1AAAAAElFTkSuQmCC;" parent="1" vertex="1">
          <mxGeometry x="510" y="650" width="63.77" height="40" as="geometry" />
        </mxCell>
        <mxCell id="ek3AfG3ewywKdCFBDNp1-62" value="" style="rounded=0;whiteSpace=wrap;html=1;fontSize=24;fillColor=none;dashed=1;" parent="1" vertex="1">
          <mxGeometry x="480" y="575" width="460" height="124" as="geometry" />
        </mxCell>
        <mxCell id="ek3AfG3ewywKdCFBDNp1-63" value="自适应算子" style="rounded=0;whiteSpace=wrap;html=1;dashed=1;fontSize=24;fillColor=#FFFFFF;strokeColor=none;" parent="1" vertex="1">
          <mxGeometry x="670" y="670" width="150" height="60" as="geometry" />
        </mxCell>
        <mxCell id="xAS_CYBR105gYjkslp4s-4" value="" style="shape=image;verticalLabelPosition=bottom;labelBackgroundColor=default;verticalAlign=top;aspect=fixed;imageAspect=0;image=data:image/png,iVBORw0KGgoAAAANSUhEUgAAAogAAABdCAYAAAAmJZcPAAAAAXNSR0IArs4c6QAAAARnQU1BAACxjwv8YQUAAAAJcEhZcwAAFiUAABYlAUlSJPAAACRWSURBVHhe7Z1bjBTF+sALY4wxckzOarw+KMbl74MeLwETosYIJlwEPYkuixFWortGw0kMiA/nQTn6YKLgLUYirInRKC4aYhZQo3gB9UEBby8K3h5kVaI+KD74IvOfX9G19PT0dFfNdE9X93y/pHe2a7qnq77vq6+/rkvXlFodJQiCIAiCIAgBxwSfgiAIgiAIgqCRAFEQBEEQBEFoQAJEQRAEQRAEoQEJEAVBEARBEIQGJEAUhC4zOjqqTjnlFLVu3bogJZ5bbrlFbdu2LdiLh+85ThAEQRCyRAJEQUiBQO6YY45JDdZs2LVrlzrxxBPV559/rv78888gtRHSr7nmGnXBBReoa6+9NkiNh+85juNb/Z4gCIIguCIBoiC0wARqq1evVlm8DYrf+/rrr9Xg4KCaMmVKkNrMihUr1Ny5c9WqVauClKMQpH766afB3hE4juM5TxAEQRCyQAJEQWgBLX1vvvmm2rNnj+rr6wtSGyHou/3229VPP/0UpLSG37v11luDPaXOP//84L+jEAAeOHBA/2aU1157Td1///3qtNNOC1KOwvGcl0UrpyAIgiBIgCgICdDSl9TaB+20Lr744ovqhBNOCPaOQLD52GOPqXnz5ulg0mBaMulO3r17tzrzzDObAkGO5zzO53hBEARB6ASvA0S645YsWdLUpVYGaFF64IEHdBnKRJllbkvRuiG4o9s6yqFDh9T333+vpk+fHqQcgeBvy5Yt6uqrr1bj4+Pq77//jh2byHmfffZZ6WyuHVzttIz1cfPmzcF/5aYdn1JW/9nr9EK97CW8DRCZ6blw4UJ13XXXqYsvvjhI9QcqwKOPPqrmz5+vZ6RGW3ROP/10dd555+kyUJYyECfztHKWkSJ1gzyXL1+uhoeHdUtgmJ9//lkde+yxTenwzTffqB9++EGdddZZLVs0zXkTExP6s6q04xvKVh+xk3vvvdf6Rusr7egKyug/e51eqJc9B2sx+8batWtr06ZNq+3bty9I8YtVq1bVFi9eXJsxYwZ9i3rbunVr8G0je/furZ188sm6TD4TJ3OXcpYRW9188skntb6+vsmyDw0N1epB2uSGXML7c+bMqR06dEgfG+bHH3+snXvuufp6Y2Njej8Mv891uF4Uvps9e3bs7xqi+awinfqGstTHZcuWabvyPZ9JdKorKIu+ep2i6uX+/ftru3btCvaErPEuQMRAuMlhMDasWbMm9oaaJ4cPH9YbeSSvaYHT+Pi4Dhx8dXKtZO5azjJio5to4GXkwvbHH3/UhoeHaxMTEw3pUQjsCBy58QN2Gw0QuU5/f3+sPXNemv1UPUB08Q1JfsH3+ohdcLOlvvEZtZMy4KIrKLO+ep0i6yW/RWA5c+bM2vbt24NUISu8ChDNDc7cRNPg+IGBgcRWlTwJO/K0mzJlomytKkdR2MjcpZxlJE03RkZxZcf2CBDTbuI4PVoACShhdHRUn8t5Gzdu1GlGztHrkE4rbprtcJ6PNpYFNnZq4Ng0v+BrfQRshbpmtrLVORddQdn11cu46DovPROY4h8JLqdPn17btGlT8I3QKd6MQWTm5T333KP/v+uuu/RnEgxuvfHGG1X9yaFhxqcLrEDRrVUoTJkooy+zTF1lXlXy1g3jNp966in13HPPqalTp+pr1IM+/blhwwZ16aWX6uP47pxzzlH79u3T+wbGJpLOeJ1nnnmmZR4576KLLtJjeqqEi53a+oWsdJ61DyH/b7zxhraZ+o1Sp5VpZrqLrqDb+hKyw5d6eckll6iPPvpIffXVV9pP3nTTTXq8/EsvvSS20iENASLC5H1qCJeVI1ptaUuEtcN7772nduzYYXWD431w119/vfr222+bZny6UA+Q23pFSTtQJspGGSmrD7jIvAwwEy5qv5dddpm2lySSdMPNnwDut99+U4sWLXJescRMSuEmf8YZZ+g0HCSTTlgBhd82A7pJx0G+/vrrDddg0snbb7+t7rvvPrV48eJYB8vxnMf5SQ64XcrgG1z8Qlb1MWsfsnfvXm0nCxYs0Bu4zkyvoh/PSl9Vokg9g0/1csqUKaq/v19fi0Dx3//+tw4UCRiZZBn2p64ULedCqTs3Dd1YDKAnKWnLo5mfJme63/j9pPEHXJfxBjQlm/zwPxsTB1yhOdu2GyQO0yVIPmy6gUzXUdpkg25gK3NwLWe3oSxMqGF8C124jAFksLTJM/aRlu9WugmPKzRblLi0MK3OaXUeNhnVSdLxQPk6seUkfPcN7fqFLOpjpz4kDHmgC87IEJ2a8theo8p+PAt9VYUi9Qy+10t8JfcAhv9wPfLxyCOPOP9e0XIuGh0gIoTBwcHatm3bJm9EDz/8sC40/fsmzWxZg2C5FoJOu5FzfQazciwGZAKCdvLVqXNHbi6Bk3H4PhiTi8xdy9lNyBsDlOOcFLZrypimZ590g01j20k32TAcZ+pC1pTFN3BtV7+Qhc479SFhyE/4t8I3YeofukiiLLoCrl+EvqpA0XoG3+ulgesgr5UrV04GijQm2ASKPsi5aHQXM82yjIWiS6MuRD3maf369bqpl2Zb0sJb1tCFRhdeXfCx74ALw/VfeeUV/T8rRzBuK698ZQ1lo4yU1eZddTRZxzVl22x1ow5+JR4XmfsKTf/1G6r69ddfdXdCFGwXG4YPPvhAj4Nphatu8gSbfuutt/T/aXrk+y+++EIfz3lZUxbfwLVd/YJPOseWn3/+eT1Oy8BQAcoC3333nV59J4mq+3Gf9FUkResZylIvuQ5jt+sP0er333/X9wvuq//4xz9SfasPci4aHSCyPmz45lKPjrVDyms8U5SXX35Zf5500kmx68yGwZFiNBgQK0uUCcpGGcGUOYn6k45eNaOdLW6ljTAuMveVp59+Wo9VufPOO7UT6ARX3eQNDgf9p+mR75999tncHFRZfEM7fsEnnZsxhldddZX+NPDgM23aNP1/dGxqlKr7cd/qaFEUrWcoW708ePCg+t///qceeeQRnZcXXnihqa5F8UHORdM0ixmFMqAep2RmV/oEjpRB2zZOqAqEn1BctqrD5I8HH3zQ2vEwWDlc2atEO/o2rdN33313kJKOz76h7H4BuS5durTpxsODz+WXX67/d5msIn68NxA9J8P1mWDCxK+tW7fqVvhffvlFLwfoEuT5Lue8aAoQjUKzaJWxAcG7NCO/8847uukZp2mTv6RuWl47whb3HVues5IoM2UvAleZu5Jn17jB2AHN/a1m0B0K1jYGujdsHUKRuukGdLXz2p1araZbH22Xc/PZN7j6hShJOs/bhyD/v/76q2WLBi0WPAhRPm5SNlTNj0epeh21pdt6Bl/qZRImMGTWNPWL4JDZzQSG7TxQFyFnH2gKEFEo+Np9y3grCI/VSSKpm5bxCGxx37FxruBOnl3jgMOguw2SAj/GjDDuhKe+uDGKvQoODkcHQ0ND1uum+uwbXP2CC3n7EOSa9H448+oPSBtLa6iaHxfiET03QjA4f/78hsCQdySacYTt4ruc86IhQDQtC0mtMlmDU0wb0GwgfzhInqZtzwHT7RrdDHHfseUJ+Xdp4s4SF5m3S5w8bTYbzNNcWvcyrS08vbo+9RWpm25B4HL48GE9eNsGn31Du34hTJrO42yVzRD3HVsa5H337t2JDzDki1ZEYAxU2mSVqvrxMGn66gWK0DP4VC8NTCjhnbd0/zJpcc+ePZkEhlCUnH2gIUA0gzBduuOy4MILL9SftPbQ6tMKk79eUVSeXbW2MvcRnuYI/JLsgKfH7du3q9mzZ+uuBqEZ2yAGfPYNZfYLBHszZsxIfYDhxkdLOKRNVhE/3hsUpWfwpV7SWEBgSM/TP//5T92NTGDI6iqdBoaGIuVcNA0BolniK/y286SlvbIi7e3qBpO/sj49UpGoUGAqWBJ5dtXaytw3wt3LreyAY1iqiYHRjA+zsRVX3fQaPvuGdv1C0TpHdh9//LFVt1V4WACr6iStMlFVPy51tJGi9Ay+1EvKeuWVV+rAkFZE8/qZLClSzkUzGSBSWHPjNQIZHR1Vp556qpNy2wEDohmaVqFWg1/D+WM8A/sEATT/lgXKRhnTukbDmFYe1y0NG5n7iOlebgV2sWLFCv3Eh72Y5e3SaEc3vYLPvqETv1C0zgnyjj/+eOsxoOSRvEKr13/4rCsos758okg9gy/1krrz0EMP5RIYQtFyLpqmSSqwevVq3U35/vvvW00a6BSan2mGBqOEKGZGKkZDy9DGjRv1jKQiZxTt3Llz8knn3Xff1caUhCmbD10rNjI3uJYzT0z3MtA6yILsBrqV6VI+7rjjdBCJ07DFJ934jG++oRO/UKTOqUO8GNuMLbQhLAuGT2DvSVTNj0sdjafbegaf6mUegWEcRci5cI4sqHIElripK1RvGzZsSFw+hmPritHrFJoloDZt2jS59iIb/4eXymFJsDlz5sQuc8PvkR2W44n7njS+4xiWVtu/f3/wTfssa3OZLFN2NvJjNvZbrTEZzj/n+0CazNspZ55gZ9OCJf9Y8ggbDdvbvHnzJpdAcsFH3fgGcrHxDcZmsvILkGSnYd25+IWsdN6JD+HaRia2G+eYDbnFYasryFpfSbqCovVVJdL0jMzQk9EjPjuq7+gxxqbi7CJKkq67pWfsMmyrLpvN7wPH2dYnZIw8KS+y4zrmXskn+9H6ZGQdzpeN7rpBQ4AIFD5JAGFYVxHniFHVn2h1oc35ExMT+mYedmI7d+6szZ07N7ZwxjBQQlh4Ycxv2+YvjU5+K5yX6BYHZaJscZWpKFxlHt26DRUExxHObxZ58lE3PmIr4yz9AqTZqfltm7wZstK563XDhPPdzpaEzTGGMvjxrPRVNdLkyHfo1ugD2Q0PD2u9GoyOow86rF/MA3crfKmX4eu4bC6knUNeCei4P7ERxCFX1qGmPNOnT9f3L+oaZTOypg5xLMfx+6Sbspv9JN3lTVOA6AoZnzVrlnYaYYzxhI0OYYyOjgZ7zWCMCCNqqFUAB2v7VNRNyiRz8ogMXZyHDb7qpsxk6RcgazsVnTfiux8XfbWPCUoIYEZGRrSuoyBfgkQT9PNJMJLmZ6VeHiUc4CFzQI7IlQDQQBnNPQxd9Pf3T+okqgcb3eVJxwEiBSHzpkBhEFbYcMbGxmKPC1NFR4BSqUR0i/pIGWRuKlrW+fRdN2Ula78AWdmp6LyZrPWVpU8RfXVOXEtwGPTJ90ZffNrqTurlUZCFCf4gKleIHmNaJk0XdDhAhDTd5UnsJBVXmDFaf5II9hqpF04PyGZAdT0aTh2kyqtd6gaili9fnjoIuwww65ZZXHXlO617203KIHPsCzurV5TM1sIsg27KTJZ+AbKwU9F5a3z046KvbDh48KCetMdEi7h35KJPXqPE4gK8ZmZ8fNzaz0q97AzkxuSXG264Qc/IjpKmuzzpOEDk3UP1p8vY1y6YdxjhWOpPB+q2227T+2lgIE888YSe9RSepVo2kM2sWbPUHXfcYb1iRVH4LnNjX+2u6RmlTLopI3n4BejETkXnrfHRj4u+soFXy6xfv15t3rxZLV26VM+cj3vdDKv5MPOYGcdTp0518rNSL9uDgI9Z0QcOHNAzo6dEZmTb6i4vOgoQMQSmoS9atEh9+eWXOuMUJFwADG5sbEyvj+gChsZTDE+0nTyBFgUyePXVV9WHH36on7CiivcRX2VOXnitR19fn9NrQVpRRt2UiTz9ArRjp6Lz1vjox0Vf2UBQv2bNGr0R9D355JPq7LPP1g8DfBeGgJAH8Mcff1zdfPPNQao9Ui/d4ZU+vEKOVkIwa1eDi+5yI+hqdqIe5eup2rwOAcxAZqazM47AQL87YwrCaa4kzRzynbLm3cd8k6cs81Vmu/KVbvoFcNWh6LwR3/246KtzhoaG9PhAPgGds8/GmFMzDs6AjgcGBprSXejVeols6wHupGx37dql6xf7pFOP0EP4GF6Hw/hC0tiYiMJ3nMfMZ/631V0eTOFP/YLOcFq9QMHekX0Ip9F8SvrChQuDFEEQqoz4hXIh+qo2Rp9gdBqXZqDljxZAl2EfwlGisk3ah7i0OGx0lwdtdzFHM8d+OA1DY7CrOBVB6B3EL5QL0Ve1MfoM6zQuzcBkkQULFgR7gitR2Sbtt0qL2wxxaXmSySxmA0+ag4ODetAlhiZPIYIgiF8oF6Kv3oTxgIxBzWISoFANMg0QYceOHXrg5cDAQJAiCEKvI36hXIi+eod169bp16xcccUVamRkJEgVBKXaHoPYCn6uW82fgiCUA/EL5UL01VuYMEB0LoTJPEAUBEEQBEEQyk3mXcyCIAiCIAhCuZEAURAEQRAEQWhAAkRBEARBEAShAQkQBUEQBEEQhAYkQBQEQRAEQRAakABREARBEARBaEACREEQBEEQBKEBCRAFQRAEQRCEBiRAFARBEARBEBqQAFEQBEEQBEFoQAJEQRAEQRAEoQEJEAVBEARBEIQGJEAUBEEQBEEQGpAAURC6yOjoqDrllFPUunXrgpTW3HLLLWrbtm3BXjx8z3GCIAiCkCUSIApCCgRzxxxzTGqwlsauXbvUiSeeqD7//HP1559/BqnN8N0111yjLrjgAnXttdcGqfHwPcdxfNJvCoIgCIILEiAKQgtMoLZ69WpVq9WC1Pbgt77++ms1ODiopkyZEqTGs2LFCjV37ly1atWqIOUoBKmffvppsHcEjuN4zhMEQRCELJAAURBaQGvfm2++qfbs2aP6+vqC1Pbgt2699dZgT6nzzz8/+K8RAsADBw6o22+/PUg5ymuvvabuv/9+ddpppwUpR+F4zuu0lVMQBEEQQAJEQUiA1r60Fj9XXnzxRXXCCScEe0ehlfGxxx5T8+bN0wGlwbRk0p28e/dudeaZZzYFghzPeZwvXc2CIAhCp3gdINIlt2TJkqYutTLw008/qQceeECXoUyUWea2FKkbAju6rOM4dOiQ+v7779X06dODlCMQ/G3ZskVdffXVanx8XP3999+xYxM577PPPiudzbWDq52WsT5u3rw5+K/ctONTyuo/exnRc/XwNkBktufChQvVddddpy6++OIg1R+oBI8++qiaP3++npUabdE5/fTT1XnnnafLQFnKQJzM08pZRorSDbJcvny5Gh4e1q2AUX7++Wd17LHHxn73zTffqB9++EGdddZZLVs0zXkTExP6s6q04xvKVh+xlXvvvdfpZusj7egKyug/exnRc0WpecjatWtr06ZNq+3bty9I8YtVq1bVFi9eXJsxYwYzF/S2devW4NtG9u7dWzv55JN1mXwmTuYu5Swjtrr55JNPan19fZNlHxoaqtWDtJYb30f58ccfa+eee66+1tjYmN6Pwu9zHa4Xhe9mz55dO3ToUJDSTDSfVaRT31CW+rhs2TJd33zPZxKd6grKoq9eRvRcXbwLEDEQbnIYjA1r1qyJvaHmyeHDh/VGHslrWuA0Pj6uAwdfjb+VzF3LWUZsdBMNvIxckrYwBHVz5szRN33AZuMCRK7T398fa8+cm2Y/VQ8QXXxDkl/wvT5iG9xwqW98xtmK77joCsqsr15G9FxtvAoQzQ3O3EjT4PiBgYHEVpU8CTvytJsyZaJsrSpHUdjI3KWcZSRNN0ZG7ZYdh0fr3x9//KH3R0dHtc0i140bN+o0MHKOXod0WnHTbIfzfLSxLLCxUwPHpvkFX+sjYC/UNbOVrc656ArKrq9eRfRcfbwZg8jMy3vuuUf/f9ddd+nPJBjceuONN6qZM2c2zPh0gRUourUKhSkTZfRllqmrzKtKnrphzOZTTz2lnnvuOTV16lT9+/WAT39u2LBBXXrppcGRSn9/zjnnqH379gUpR2BsIumM13nmmWda5pHzLrroIj2mp0q42KmtX8hC53n4D/L/xhtvaLup3yh1WplmprvoCrqpLyE7RM+9QUOAiEJ4nxqTEVg5otVms0yYK++9957asWOH1Q2O98Fdf/316ttvv22a8elCPUDu+AXItlAmykYZKasPuMi8DDATLmq/l112mbaXJJJ0QwBAEPfbb7+pRYsWOa1YYialcIM/44wzdBrOkQknrH7C74YHdPMdDvL1119vuAaTTt5++2113333qcWLF8c6WI7nPM5PcsDtUgbf4OIXsqiPefiPvXv3altZsGCB3sB1ZnoV/XgW+qoSReoYyqxnHrjvvvtu6wmXRcu6UOoOTkM3FoPoSUra8mj+pcmZLjh+P2n8AddlICvjFEx++J8tbmJAGjRn2zaPx2G6BMmHTTeQ6TpKm2zQDWxlDq7l7DaUhQk1jG+hG5cxgAyYNnnGPtLy3Uo30bGFbC7EHZ/2O9hkVCdp51C+Tmw5Cd99Q7t+odP62Kn/iEIe6IIzMkSnpjy216myH+9UX1WhSB1DWfW8f//+2sjIiL6+zZAdKFrWRaMDRIQwODhYq0fUkzeihx9+WBeawacmzWxZg2C5FoJOu5FzfQazciwGZAKCdvLVqYNHbi6Bk3H4PhiTi8xdy9lNyNvMmTNjHRW2a8qYpmefdINNY9tJzjcMx5m6kDVl8Q1c29UvdKrzTv1HFPIT/r3wjZj6hy6SKIuugOt3W19VoGgdQ9n0TGA4b968ycDQyCkNH2RdNLqLmSZgxkPRpVEXom6CXb9+vW7q7e/v12nhLWvoQqMLry742HfAheH6r7zyiv6flSMYt5VXvrKGslFGymrzrjqarOOasm22ulEHvxKPi8x9hab/+g1V/frrr+qmm24KUo+C7WLD8MEHH+hxMK1w1U2eYNNvvfWW/j9Nj3z/xRdf6OM5L2vK4hu4tqtf8Enn2PLzzz+vx2kZGCpAWeC7777TK/AkUXU/7pO+iqJoHUNZ9IysGGJEt3Y91lFfffWV+uijj9Qll1xiJRsfZF00OkBkjdjwzaUeHWuHlNd4pigvv/yy/jzppJNi15kNgyPFaDAgVpYoE5SNMoIpcxKrVq3Sq2a0s8WttBHGRea+8vTTT+uxKnfeeaeewNEJrrrJGxwO+k/TI98/++yzuTmosviGdvyCTzo3Ywyvuuoq/WngwWfatGn6/+jY1ChV9+O+1dEiKFrH4LueTWCIb/zXv/6lA0PSTFBniw+yLpqmWcwolEH1OKXwDEtfwJEyaNvGOKuAeTpx3aoOE0AefPBBa8fDLOBwZa8S7ejbtE4zWNsWn31D2f0Ccl26dGnTjYcHn8svv1z/7zJZRfx49fFdx9AtPSOLl156SU8kGRoa0nXm999/140IroFhHGWQdR40BYhGoVm0ytiA4F2akd955x3d9IwB2OQvqZuWV4+wxX3HluesJMpM2YvAVeau5Nk1bjB2QHN/q1l0h4K1jYHuDdunviJ10w3oaufVO3S70Ppou5ybz77B1S9EaaXzbvgP5P/XX381tR4aaLHgQYjycZOyoWp+PErV66gN3dYx+KhnluijAeA///mP+u9//6tb+dauXasbBLJqLClC1j7QFCCiUPC1+5bxVhAeq5NEUjct49fY4r5j41zBnTy7xgGHQXcbJAV+jBnhKZKnvrgxir0KDg5HBzxt266d6rNvcPULtnTDfyDXpPfDmVd/QNpYWkPV/LjQjO86hm7omSCSh13Gon/55Zfa72fdi1YGWedBQ4BoWhaSWmWyBqeYNtDVQP5wkDxN254DGEvcZoj7ji1PyL9ti1bWuMi8XeLkabPZYJ7m0rqXaW3h6dX1qa9I3XQLgpfDhw/rJ20bfPYN7fqFMEk6j7NTNkPcd2w2kPfdu3cnPsCQL1oRgdaRtMkqVfXjYZL01QsUoWPwUc+8H5aeIlrst2zZoiel8N5C7hNZUJSsfaAhQDSDMF2647Lgwgsv1J+09hD9t8Lkr1cUlWdXra3MfYSnOQK/JDug22779u1q9uzZ2lkIzbgEMj77hjL7BYK9GTNmpD7AMO6JlnBIm6wifrz6FKVj8FHPdCevXLlS/fLLL+qFF17QL9kmUGSyiu0QmlYUKeuiaQgQzRJf4bedJy3tlRVpb1c3mPyV9emRykSlAlPJksizq9ZW5r4R7l5uZQccw1JNDIxmjJiNrbjqptfw2Te06xeK1jmy+/jjj626rcLDAlhVJ2mViar6camjRylKx+CznnngXbJkiZ65vHXrVt31zMOVzYparShS1kUzGSBSWHPjNQJh8Oepp57qpNx2wIBohqZVqNUA2HD+GM/APkEAzb9lgbJRxrSu0TCmlcd1S8NG5j5iupdbgV2sWLFCP/FhL2aJuzTa0U2v4LNv6MQvFK1zgrzjjz/eegwoeSSv0Or1Hz7rCsqsL18oUsdQBj1zD+T9hbz3cM+ePTpQpNHk//7v//RsZ1uKlnXRNE1SgdWrV+tuyvfff99q0kCn0PxMMzQYJUQxM1IxGlqGNm7cqJ8UipxRtHPnzsknnXfffVcbUxKmbD50rdjI3OBazjwx3ctA62C4stOVQJfycccdp4NIXm9gi0+68RnffEMnfqFInVOHeDG2GVtoQ1gWDJ9I6zqrmh+XOtpMt3UMZdIzgSIvxiZQpFXxyiuv1ON9eR2Oa9dzEbIunHpkPQlL3NQVqrcNGzYkLh/DsXXh63UKzRJQmzZtmlx7kY3/w0vlsCTYnDlzYtdXNMvrsBxP3Pek8R3HsLQay+d0yrI2l8oyZWcjP2Zjv9Uak+H8c74PpMm8nXLmCXY2LVjyjyWPsNGwvc2bN896GaUwPurGN5CLjW8wNpOVX4AkOw3rzsUvZKHzdv0HmDIZmdhunGM25BaHra4ga30l6QqK1FeVsNExMkNPRo/47Ki+o8cYm4qzizBl1TNyojwrV660/n2Os61PyBh5Ul5kZ+RuvmM/XJ+MnM1m8mSju27QECAChU8SQBjWVcRBYlT1J1pdaHP+xMSEvpmHndjOnTtrc+fOjS2cMQyUEHZGYcxv2+YvjU5+K5yX6BYHZaJsrSpUEbjKPLp1GyoIjiOc3yzy5KNufMRWxln6BUizU/PbNnkzZKFz12tGCee7nS0Jm2MMZfDjWeiratjIkO/RrdEHshseHtZ6NRgdRx92CKJ44I6j7Hp2yROklYO8EtBxf2IjiEOurENNeaZPn67vX9Q1yoasqT8cxzH8Nmnhcpu0JN3lTVOA6AoZnzVrlnYaYYwBhY0OgYyOjgZ7zWCMCCNqqFUAB5vXU1EnlEnm5BEZZu08fNVNmcnSL0DWdio6b8R3Py76ah8TlBDAjIyMaF1HQb4EiSbo55NgJMnPip4bCQd5yByQI3IlCDRQRo7ZtWtXrb+/f1IfUR2Aje7ypOMAkcKQ+XChDAgrbDxjY2Oxx4WpoiNAqVQkukV9pAwyNxUt63z6rpuykrVfgKzsVHTeTNb6ytKniL46J64lOAz65HujLz5tdCd6bgR5ENCZwDoqVwgfY1olTfdzNECENN3lSewkFVeYMVp/mgj2GqkXTg/IZkBoPRpOHaTKq13qBqKWL1/e8fuLfIBZt8ziqhuA07q33aQMMse+sLN6RclsLcwy6KbMZOkXIAs7FZ23xkc/LvrKhoMHD+pJe0y0iHtHLvrkNUosLsBrZsbHx638rOi5M5AbE19uuOEG9dBDDwWpjaTpLk86DhB5t1D96TL2tQvmHUY4lvrTgbrtttv0fhoYyBNPPKFnPblMSfcNZDNr1ix1xx13WK9YURS+y9zYV7trekYpk27KSB5+ATqxU9F5a3z046KvbODVMuvXr1ebN29WS5cu1TPn4143w+xeZh4z45gXT9v6WdFzexDsMSP6wIEDelb0lJjX09nqLi86ChAxBqahL1q0SK+BSMYpSLgAGNzY2JiaP39+kGIHxsZTDE+0nTyZFAUyePXVV9WHH36on7LilO8bvsqcvPBaj76+PqfXgrSijLopE3n6BWjHTkXnrfHRj4u+soGgfs2aNXoj6HvyySfV2WefrR8G+C4MASEP4I8//ri6+eabg1Q7RM/u8DofXh9HCyGYdasNLrrLjaCr2Yl6lK+navM6BDADmZnOzjgCA/3ujCkIp7mSNHPId8qadx/zTZ6yzFeZ7cpXuukXwFWHovNGfPfjoq/OGRoa0mME+QR0zj4bY07NWDkDOh4YGGhKt6WX9Yxs6wHupGyZhEL9Yp906hF6MMcwQYV6xT4bk1BIN6/BcdVdHkzhT/2CznBavVDB3pF9CKfRhEr6woULgxRBEKqM+IVyIfqqNkafYHQal2ag9Y9WQJdhH8JRorJN2k8i7lxI0l0etN3FHM0c++E0DI3BruJUBKF3EL9QLkRf1cboM6zTuDQDk0VYok5oj6hsk/aTtuixhri0PMlkFrOBJ83BwUE98BJDk6cQQRDEL5QL0VdvwnhAxqBmMQlQqAaZBoiwY8cOPfhyYGAgSBEEodcRv1AuRF+9w7p16/SrVq644go1MjISpAqCUm2PQWwFP9et5k9BEMqB+IVyIfrqLUwYIDoXjqLU/wN+tYKs+oA97QAAAABJRU5ErkJggg==;" vertex="1" parent="1">
          <mxGeometry x="530" y="584.0699999999999" width="398" height="57.13" as="geometry" />
        </mxCell>
      </root>
    </mxGraphModel>
  </diagram>
</mxfile>
